<svg width="47" height="44" viewBox="0 0 47 44" fill="none" xmlns="http://www.w3.org/2000/svg">
<path d="M41.5419 13.3871H28.3228V3.91214C28.3228 2.87458 27.7477 1.8795 26.7241 1.14584C25.7005 0.412169 24.3123 0 22.8647 0H9.66559C8.69341 0 7.76105 0.276811 7.07361 0.769537C6.38618 1.26226 6 1.93055 6 2.62737H22.8647C23.1001 2.62737 23.3331 2.66059 23.5506 2.72516C23.7681 2.78972 23.9657 2.88436 24.1321 3.00366C24.2985 3.12297 24.4306 3.26459 24.5207 3.42046C24.6107 3.57634 24.6571 3.7434 24.6571 3.91212V14.5741C24.6571 14.9561 24.8688 15.3225 25.2457 15.5926C25.6225 15.8627 26.1337 16.0145 26.6666 16.0145H41.5419C42.0172 16.0145 42.4731 16.1498 42.8093 16.3907C43.1454 16.6317 43.3343 16.9585 43.3343 17.2992V26.7008C43.3343 27.0415 43.1454 27.3683 42.8093 27.6093C42.4731 27.8502 42.0172 27.9856 41.5419 27.9856H26.6667C26.1337 27.9856 25.6226 28.1373 25.2457 28.4074C24.8689 28.6775 24.6571 29.0439 24.6571 29.4259V40.0879C24.6571 40.2566 24.6108 40.4237 24.5207 40.5795C24.4306 40.7354 24.2986 40.877 24.1322 40.9963C23.9657 41.1156 23.7681 41.2103 23.5506 41.2748C23.3332 41.3394 23.1001 41.3726 22.8647 41.3726H6.00005C6.00005 42.0695 6.38624 42.7377 7.07368 43.2305C7.76111 43.7232 8.69347 44 9.66565 44H22.8647C24.3123 44 25.7006 43.5878 26.7242 42.8542C27.7478 42.1205 28.3228 41.1254 28.3228 40.0879V30.6129H41.5419C42.9895 30.6129 44.3778 30.2007 45.4014 29.4671C46.425 28.7334 47 27.7383 47 26.7008V17.2992C47 16.7855 46.8588 16.2768 46.5845 15.8021C46.3102 15.3275 45.9082 14.8962 45.4014 14.5329C44.8945 14.1697 44.2928 13.8815 43.6306 13.6849C42.9684 13.4883 42.2587 13.3871 41.5419 13.3871Z" fill="#009DDD"/>
<path d="M12.2341 29.6076C12.1524 29.3314 11.7683 29.01 11.6722 29.0714C11.5552 29.2866 11.4887 29.5755 11.4867 29.8775C11.609 31.6251 12.126 33.0489 11.1503 34.4394C10.0503 35.6971 10.0281 32.0613 9.55288 33.2519C9.2928 34.0198 9.0165 34.8491 8.6188 35.3969C7.56376 36.7737 6.69768 33.5915 7.62544 32.5134C8.17226 31.8066 8.27976 31.4261 7.70879 30.6155C6.67821 28.2172 9.4737 28.8397 9.87287 27.2348C7.56937 26.8766 4.98021 27.0392 3.50534 30.5901C3.1807 31.3382 3.221 32.2457 3.31196 33.1247C3.39371 34.2336 3.64311 35.3298 3.63638 36.4476C3.29931 39.431 5.00335 41.8723 6.54065 41.6036C7.45857 41.4233 8.36302 39.8356 9.26837 40.9901C10.5372 42.8906 12.8577 42.1702 13.1785 38.9568C13.6608 35.5953 13.3326 32.4637 12.2341 29.6076Z" fill="#25D366"/>
<path d="M9.75448 25.6514C8.52926 23.3754 5.44071 25.2712 5.04267 23.7544C4.74887 22.6464 5.42386 21.3823 6.04296 21.6776C6.59924 22.1828 6.98339 22.0466 6.85764 20.7426C6.84161 20.5193 6.77308 20.0419 6.82296 19.9752C7.3422 19.2897 7.92636 20.0892 8.42114 20.4725C8.74353 20.7972 9.04294 21.1943 9.31255 21.6546C9.64101 22.1639 9.76469 22.9756 10.1476 23.3988C9.37675 19.1098 7.06627 14.692 4.41461 15.2049C3.78413 15.2476 3.2289 16.1141 3.21715 17.315C3.21715 19.9883 1.33021 16.4033 0.213077 19.797C-0.400669 21.4682 0.453712 23.1019 0.984845 24.3905C1.03878 24.5274 1.10406 24.74 1.0827 24.8733C0.755253 26.917 1.892 28.956 3.13231 28.5434C4.4922 27.9087 5.79651 26.8618 7.14732 26.1578C8.00227 25.7627 8.91011 26.2385 9.75448 25.6514Z" fill="#009DDD"/>
<path d="M8.05978 15.3734C9.00963 16.68 9.60669 18.5226 10.1643 20.3881C10.6913 19.9085 10.024 18.338 9.9719 17.5659C9.75084 16.2716 9.52775 14.9768 9.34058 13.6659C9.09638 10.9889 10.4713 10.0673 11.023 12.9117C11.2539 14.1426 11.522 15.406 11.4313 16.7303C11.4442 17.5422 11.2409 18.4073 11.4874 19.1502C11.8055 18.9664 11.9785 18.5347 12.1295 18.0254C13.2669 14.8716 13.914 10.7095 12.8647 7.19199C12.5022 5.92664 11.6486 6.24274 11.0149 5.87945C10.8331 5.77883 10.6743 5.57491 10.5621 5.29813C9.82611 2.90327 7.60164 3.97807 7.61512 6.68636C7.61025 7.51188 7.39085 8.04669 7.01632 8.43787C6.61267 8.87686 6.06 9.2867 6.08971 10.2931C6.05062 12.6668 7.08676 14.1222 8.05978 15.3734Z" fill="#F76D00"/>
</svg>
